<svg width="37" height="20" viewBox="0 0 37 20" fill="none" xmlns="http://www.w3.org/2000/svg">
<g id="SC" transform="translate(0 -6)">
<path d="M19.35 8.16C19.35 8.6 19.17 9.11 18.81 9.69C18.51 10.23 18.17 10.6 17.79 10.8C17.43 11 17.25 10.98 17.25 10.74C17.25 10.72 17.36 10.6 17.58 10.38C18.24 9.76 18.57 9.25 18.57 8.85C18.57 7.99 17.72 7.56 16.02 7.56C15.3 7.56 14.35 7.7 13.17 7.98C11.99 8.24 10.85 8.67 9.75 9.27C8.47 9.97 7.83 10.58 7.83 11.1C7.83 11.52 8.22 11.92 9 12.3C9.42 12.5 10.25 12.84 11.49 13.32C12.75 13.78 13.76 14.19 14.52 14.55C15.3 14.89 16.03 15.38 16.71 16.02C17.41 16.66 17.76 17.37 17.76 18.15C17.76 18.93 17.3 19.78 16.38 20.7C14.98 22.04 13.16 23.15 10.92 24.03C8.68 24.93 6.76 25.38 5.16 25.38C2 25.38 0.42 24.49 0.42 22.71C0.42 20.93 1.39 19.42 3.33 18.18C4.93 17.08 6.61 16.53 8.37 16.53C8.79 16.53 8.98 16.6 8.94 16.74C8.9 16.88 8.6 16.96 8.04 16.98C7.48 16.98 6.76 17.17 5.88 17.55C5 17.91 4.18 18.44 3.42 19.14C2.42 20.04 1.92 20.94 1.92 21.84C1.92 22.4 2.19 22.9 2.73 23.34C3.27 23.78 4.3 24 5.82 24C7.34 24 8.84 23.76 10.32 23.28C13.52 22.22 15.52 21.06 16.32 19.8C16.64 19.34 16.8 18.95 16.8 18.63C16.8 17.71 16.24 16.99 15.12 16.47C13.82 15.87 12 15.18 9.66 14.4C8.76 14.1 7.99 13.71 7.35 13.23C6.73 12.73 6.42 12.14 6.42 11.46C6.42 10.76 6.79 10.08 7.53 9.42C8.29 8.74 9.2 8.2 10.26 7.8C12.54 6.94 14.47 6.51 16.05 6.51C18.25 6.51 19.35 7.06 19.35 8.16ZM34.4939 8.88C34.4939 7.76 33.9039 7.2 32.7239 7.2C31.7039 7.2 30.3739 7.68 28.7339 8.64C27.1139 9.6 25.4439 11.07 23.7239 13.05C22.0039 15.01 20.8039 17.07 20.1239 19.23C19.8439 20.09 19.7039 20.89 19.7039 21.63C19.7039 22.35 19.9139 22.98 20.3339 23.52C21.0739 24.48 22.2839 24.97 23.9639 24.99C24.0839 24.99 24.1939 24.99 24.2939 24.99C26.1539 24.99 28.1639 24.52 30.3239 23.58C32.4839 22.62 34.2139 21.22 35.5139 19.38C35.6139 19.24 35.7139 19.21 35.8139 19.29C35.9339 19.37 35.9939 19.44 35.9939 19.5C35.9939 19.56 35.9739 19.61 35.9339 19.65C34.4539 21.67 32.6339 23.19 30.4739 24.21C28.3139 25.23 26.2239 25.74 24.2039 25.74C22.0839 25.74 20.4839 25.14 19.4039 23.94C18.7039 23.16 18.3539 22.14 18.3539 20.88C18.3539 18.76 19.1539 16.48 20.7539 14.04C22.9339 10.72 25.5739 8.42 28.6739 7.14C29.8739 6.66 31.0239 6.42 32.1239 6.42C33.4839 6.42 34.4539 6.74 35.0339 7.38C35.4139 7.82 35.6039 8.33 35.6039 8.91C35.6039 10.01 35.0239 11.14 33.8639 12.3C32.7039 13.46 31.4139 14.39 29.9939 15.09C28.5939 15.77 27.3739 16.16 26.3339 16.26C25.9139 16.3 25.7139 16.19 25.7339 15.93C25.7539 15.57 26.0039 15.37 26.4839 15.33C28.0839 15.19 29.5539 14.71 30.8939 13.89C32.2339 13.05 33.2639 11.94 33.9839 10.56C34.3239 10.02 34.4939 9.46 34.4939 8.88Z" fill="#4A1A76"/>
<path d="M18.81 9.69L18.5973 9.558L18.5915 9.56859L18.81 9.69ZM17.79 10.8L17.6735 10.5787L17.6686 10.5815L17.79 10.8ZM17.58 10.38L17.4087 10.1977L17.4032 10.2032L17.58 10.38ZM13.17 7.98L13.2238 8.22418L13.2277 8.22325L13.17 7.98ZM9.75 9.27L9.63029 9.05053L9.63005 9.05066L9.75 9.27ZM9 12.3L8.8905 12.5248L8.89252 12.5257L9 12.3ZM11.49 13.32L11.3997 13.5532L11.4043 13.5548L11.49 13.32ZM14.52 14.55L14.4129 14.776L14.4201 14.7792L14.52 14.55ZM16.71 16.02L16.5386 16.2021L16.5413 16.2045L16.71 16.02ZM16.38 20.7L16.5529 20.8806L16.5568 20.8768L16.38 20.7ZM10.92 24.03L10.8286 23.7973L10.8268 23.798L10.92 24.03ZM3.33 18.18L3.46472 18.3908L3.47163 18.386L3.33 18.18ZM8.04 16.98V17.2302L8.04892 17.2298L8.04 16.98ZM5.88 17.55L5.97468 17.7814L5.97911 17.7795L5.88 17.55ZM3.42 19.14L3.58725 19.3258L3.58937 19.3239L3.42 19.14ZM2.73 23.34L2.57208 23.5338L2.57208 23.5338L2.73 23.34ZM10.32 23.28L10.3971 23.5178L10.3986 23.5173L10.32 23.28ZM16.32 19.8L16.1146 19.6571L16.1089 19.666L16.32 19.8ZM15.12 16.47L15.2253 16.2432L15.2248 16.243L15.12 16.47ZM9.66 14.4L9.58094 14.6372L9.58094 14.6372L9.66 14.4ZM7.35 13.23L7.19296 13.4247L7.2 13.43L7.35 13.23ZM7.53 9.42L7.6964 9.60657L7.6967 9.60631L7.53 9.42ZM10.26 7.8L10.1718 7.56609L10.1717 7.5661L10.26 7.8ZM19.1 8.16C19.1 8.53439 18.9455 8.99768 18.5976 9.55816L19.0224 9.82184C19.3945 9.22232 19.6 8.66561 19.6 8.16H19.1ZM18.5915 9.56859C18.3052 10.0838 17.9956 10.4093 17.6736 10.5788L17.9064 11.0212C18.3444 10.7907 18.7148 10.3762 19.0285 9.81141L18.5915 9.56859ZM17.6686 10.5815C17.5867 10.627 17.5226 10.6556 17.4747 10.6716C17.424 10.6885 17.407 10.6859 17.4126 10.6865C17.4279 10.6882 17.4644 10.7005 17.4893 10.7364C17.5072 10.7623 17.5 10.7738 17.5 10.74H17C17 10.8262 17.0153 10.9302 17.0782 11.0211C17.1481 11.122 17.2521 11.1718 17.3574 11.1835C17.453 11.1941 17.5485 11.174 17.6328 11.1459C17.7199 11.1169 17.8133 11.073 17.9114 11.0185L17.6686 10.5815ZM17.5 10.74C17.5 10.7886 17.4853 10.8237 17.4815 10.8325C17.4758 10.8459 17.4704 10.8551 17.4685 10.8582C17.4645 10.8646 17.4629 10.8662 17.4672 10.8607C17.4751 10.8507 17.4907 10.8324 17.5168 10.8039C17.568 10.748 17.6475 10.6661 17.7568 10.5568L17.4032 10.2032C17.2925 10.3139 17.207 10.402 17.1482 10.4661C17.1193 10.4976 17.0937 10.5268 17.074 10.5518C17.0646 10.5638 17.0527 10.5797 17.0418 10.5974C17.0365 10.6062 17.0285 10.6202 17.021 10.6377C17.0156 10.6506 17 10.6889 17 10.74H17.5ZM17.7512 10.5622C18.0895 10.2444 18.3525 9.94638 18.5324 9.66831C18.7109 9.39239 18.82 9.11712 18.82 8.85H18.32C18.32 8.98288 18.2641 9.16261 18.1126 9.39669C17.9625 9.62862 17.7305 9.89557 17.4088 10.1978L17.7512 10.5622ZM18.82 8.85C18.82 8.59185 18.7555 8.3547 18.6194 8.14807C18.4842 7.94287 18.2877 7.78204 18.0454 7.65942C17.5677 7.41781 16.883 7.31 16.02 7.31V7.81C16.857 7.81 17.4473 7.91719 17.8196 8.10558C18.0023 8.19796 18.1246 8.30588 18.2019 8.42318C18.2782 8.53905 18.32 8.67815 18.32 8.85H18.82ZM16.02 7.31C15.2718 7.31 14.3002 7.45487 13.1123 7.73675L13.2277 8.22325C14.3998 7.94513 15.3282 7.81 16.02 7.81V7.31ZM13.1162 7.73586C11.9123 8.00111 10.7502 8.43965 9.63029 9.05053L9.86971 9.48947C10.9498 8.90034 12.0677 8.47888 13.2238 8.22414L13.1162 7.73586ZM9.63005 9.05066C8.98159 9.40528 8.48015 9.74496 8.13752 10.0715C7.80074 10.3925 7.58 10.7368 7.58 11.1H8.08C8.08 10.9432 8.17926 10.7225 8.48248 10.4335C8.77985 10.15 9.23841 9.83472 9.86995 9.48934L9.63005 9.05066ZM7.58 11.1C7.58 11.3945 7.71846 11.6587 7.9435 11.8895C8.16654 12.1183 8.48732 12.3283 8.89051 12.5247L9.10949 12.0753C8.73268 11.8917 8.46846 11.7117 8.3015 11.5405C8.13654 11.3713 8.08 11.2255 8.08 11.1H7.58ZM8.89252 12.5257C9.3223 12.7304 10.1609 13.0736 11.3998 13.5531L11.5802 13.0869C10.3391 12.6064 9.5177 12.2696 9.10748 12.0743L8.89252 12.5257ZM11.4043 13.5548C12.6607 14.0136 13.6628 14.4206 14.413 14.7759L14.627 14.3241C13.8572 13.9594 12.8393 13.5464 11.5757 13.0852L11.4043 13.5548ZM14.4201 14.7792C15.1713 15.1066 15.8776 15.5798 16.5387 16.202L16.8813 15.8379C16.1824 15.1802 15.4287 14.6734 14.6199 14.3208L14.4201 14.7792ZM16.5413 16.2045C17.2016 16.8082 17.51 17.4551 17.51 18.15H18.01C18.01 17.2849 17.6184 16.5118 16.8787 15.8355L16.5413 16.2045ZM17.51 18.15C17.51 18.8311 17.1059 19.6205 16.2032 20.5232L16.5568 20.8768C17.4941 19.9395 18.01 19.0289 18.01 18.15H17.51ZM16.2071 20.5194C14.8356 21.8322 13.0454 22.9264 10.8286 23.7973L11.0114 24.2627C13.2746 23.3736 15.1244 22.2478 16.5529 20.8806L16.2071 20.5194ZM10.8268 23.798C8.60283 24.6916 6.71611 25.13 5.16 25.13V25.63C6.80389 25.63 8.75717 25.1684 11.0132 24.262L10.8268 23.798ZM5.16 25.13C3.59528 25.13 2.46185 24.9082 1.7277 24.4947C1.0145 24.0929 0.67 23.5076 0.67 22.71H0.17C0.17 23.6924 0.615495 24.4421 1.4823 24.9303C2.32815 25.4068 3.56472 25.63 5.16 25.63V25.13ZM0.67 22.71C0.67 21.0402 1.57269 19.5999 3.46464 18.3906L3.19536 17.9694C1.20731 19.2401 0.17 20.8198 0.17 22.71H0.67ZM3.47163 18.386C5.03445 17.3116 6.66576 16.78 8.37 16.78V16.28C6.55424 16.28 4.82555 16.8484 3.18837 17.974L3.47163 18.386ZM8.37 16.78C8.57524 16.78 8.69006 16.7983 8.74107 16.8171C8.76624 16.8264 8.74613 16.8252 8.72344 16.7934C8.69186 16.7492 8.69174 16.6989 8.69962 16.6713L9.18038 16.8087C9.20826 16.7111 9.19939 16.5995 9.13031 16.5028C9.07012 16.4186 8.98376 16.3736 8.91393 16.3479C8.77494 16.2967 8.58476 16.28 8.37 16.28V16.78ZM8.69962 16.6713C8.71174 16.6289 8.73694 16.6164 8.72544 16.6239C8.71337 16.6317 8.68227 16.647 8.62058 16.6634C8.4977 16.6962 8.30474 16.7204 8.03108 16.7302L8.04892 17.2298C8.33526 17.2196 8.5723 17.1938 8.74942 17.1466C8.83773 17.123 8.92413 17.0908 8.99706 17.0436C9.07056 16.9961 9.14826 16.9211 9.18038 16.8087L8.69962 16.6713ZM8.04 16.73C7.42989 16.73 6.67304 16.9352 5.78089 17.3205L5.97911 17.7795C6.84696 17.4048 7.53011 17.23 8.04 17.23V16.73ZM5.78534 17.3186C4.87552 17.6908 4.03061 18.2377 3.25063 18.9561L3.58937 19.3239C4.32939 18.6423 5.12448 18.1292 5.97466 17.7814L5.78534 17.3186ZM3.25276 18.9542C2.22631 19.878 1.67 20.8402 1.67 21.84H2.17C2.17 21.0398 2.61369 20.202 3.58724 19.3258L3.25276 18.9542ZM1.67 21.84C1.67 22.4932 1.98937 23.059 2.57208 23.5338L2.88792 23.1462C2.39063 22.741 2.17 22.3068 2.17 21.84H1.67ZM2.57208 23.5338C2.88452 23.7884 3.31967 23.9651 3.85528 24.0795C4.39315 24.1944 5.04945 24.25 5.82 24.25V23.75C5.07055 23.75 4.45185 23.6956 3.95972 23.5905C3.46533 23.4849 3.11548 23.3316 2.88792 23.1462L2.57208 23.5338ZM5.82 24.25C7.36681 24.25 8.89281 24.0057 10.3971 23.5178L10.2429 23.0422C8.78719 23.5143 7.31319 23.75 5.82 23.75V24.25ZM10.3986 23.5173C12.0082 22.9841 13.3255 22.4228 14.3454 21.8313C15.3629 21.2411 16.1009 20.6115 16.5311 19.934L16.1089 19.666C15.7391 20.2485 15.0771 20.8289 14.0946 21.3987C13.1145 21.9672 11.8318 22.5159 10.2414 23.0427L10.3986 23.5173ZM16.5252 19.9428C16.855 19.4687 17.05 19.0268 17.05 18.63H16.55C16.55 18.8732 16.425 19.2113 16.1148 19.6572L16.5252 19.9428ZM17.05 18.63C17.05 17.5787 16.3978 16.7876 15.2253 16.2432L15.0147 16.6968C16.0822 17.1924 16.55 17.8413 16.55 18.63H17.05ZM15.2248 16.243C13.9125 15.6374 12.0825 14.944 9.73906 14.1628L9.58094 14.6372C11.9175 15.416 13.7275 16.1026 15.0152 16.697L15.2248 16.243ZM9.73906 14.1628C8.85994 13.8698 8.11494 13.4912 7.5 13.03L7.2 13.43C7.86507 13.9288 8.66006 14.3302 9.58094 14.6372L9.73906 14.1628ZM7.50694 13.0354C6.93452 12.5738 6.67 12.051 6.67 11.46H6.17C6.17 12.229 6.52548 12.8862 7.19306 13.4246L7.50694 13.0354ZM6.67 11.46C6.67 10.857 6.98679 10.2395 7.6964 9.60657L7.3636 9.23343C6.59321 9.92053 6.17 10.663 6.17 11.46H6.67ZM7.6967 9.60631C8.4313 8.94904 9.31393 8.42422 10.3483 8.0339L10.1717 7.5661C9.08607 7.97578 8.1487 8.53096 7.3633 9.23369L7.6967 9.60631ZM10.3482 8.03391C12.6137 7.17941 14.5119 6.76 16.05 6.76V6.26C14.4281 6.26 12.4663 6.70059 10.1718 7.56609L10.3482 8.03391ZM16.05 6.76C17.1372 6.76 17.9154 6.89723 18.4132 7.14611C18.6585 7.26878 18.8275 7.41448 18.9357 7.5768C19.0429 7.73755 19.1 7.92875 19.1 8.16H19.6C19.6 7.84125 19.5196 7.5512 19.3518 7.29945C19.185 7.04927 18.9415 6.85122 18.6368 6.69889C18.0346 6.39777 17.1628 6.26 16.05 6.26V6.76ZM28.7339 8.64L28.6076 8.42424L28.6065 8.42493L28.7339 8.64ZM23.7239 13.05L23.9118 13.2149L23.9126 13.2139L23.7239 13.05ZM20.1239 19.23L20.3616 19.3074L20.3624 19.3051L20.1239 19.23ZM20.3339 23.52L20.5319 23.3674L20.5312 23.3665L20.3339 23.52ZM23.9639 24.99L23.9609 25.24H23.9639V24.99ZM30.3239 23.58L30.4237 23.8092L30.4254 23.8085L30.3239 23.58ZM35.5139 19.38L35.3105 19.2347L35.3097 19.2357L35.5139 19.38ZM35.8139 19.29L35.6577 19.4852L35.6662 19.492L35.6752 19.498L35.8139 19.29ZM35.9339 19.65L35.7571 19.4732L35.7436 19.4868L35.7322 19.5022L35.9339 19.65ZM30.4739 24.21L30.3672 23.9839L30.3672 23.9839L30.4739 24.21ZM19.4039 23.94L19.2178 24.107L19.2181 24.1072L19.4039 23.94ZM20.7539 14.04L20.5449 13.9028L20.5448 13.9029L20.7539 14.04ZM28.6739 7.14L28.5811 6.90787L28.5785 6.90892L28.6739 7.14ZM35.0339 7.38L35.2232 7.21655L35.2192 7.21212L35.0339 7.38ZM29.9939 15.09L30.1031 15.3149L30.1044 15.3142L29.9939 15.09ZM26.3339 16.26L26.3576 16.5089L26.3578 16.5089L26.3339 16.26ZM25.7339 15.93L25.9832 15.9492L25.9835 15.9439L25.7339 15.93ZM26.4839 15.33L26.5047 15.5791L26.5057 15.579L26.4839 15.33ZM30.8939 13.89L31.0244 14.1033L31.0267 14.1018L30.8939 13.89ZM33.9839 10.56L33.7723 10.4268L33.7669 10.4354L33.7623 10.4444L33.9839 10.56ZM34.7439 8.88C34.7439 8.27804 34.5847 7.7815 34.2235 7.43867C33.8648 7.09816 33.3493 6.95 32.7239 6.95V7.45C33.2785 7.45 33.6481 7.58184 33.8793 7.80133C34.1081 8.0185 34.2439 8.36196 34.2439 8.88H34.7439ZM32.7239 6.95C31.6356 6.95 30.258 7.45817 28.6076 8.42425L28.8602 8.85575C30.4898 7.90183 31.7722 7.45 32.7239 7.45V6.95ZM28.6065 8.42493C26.9563 9.40277 25.2664 10.8932 23.5352 12.886L23.9126 13.2139C25.6214 11.2468 27.2715 9.79723 28.8614 8.85507L28.6065 8.42493ZM23.536 12.8851C21.7965 14.8673 20.5773 16.9571 19.8854 19.1549L20.3624 19.3051C21.0305 17.1829 22.2113 15.1527 23.9118 13.2149L23.536 12.8851ZM19.8862 19.1526C19.5998 20.0322 19.4539 20.8586 19.4539 21.63H19.9539C19.9539 20.9214 20.088 20.1478 20.3616 19.3074L19.8862 19.1526ZM19.4539 21.63C19.4539 22.4025 19.6806 23.0872 20.1366 23.6735L20.5312 23.3665C20.1472 22.8728 19.9539 22.2975 19.9539 21.63H19.4539ZM20.1359 23.6726C20.9388 24.7143 22.2357 25.2194 23.9609 25.24L23.9669 24.74C22.3321 24.7206 21.209 24.2457 20.5319 23.3674L20.1359 23.6726ZM23.9639 25.24C23.9641 25.24 23.9644 25.24 23.9646 25.24C23.9648 25.24 23.9651 25.24 23.9653 25.24C23.9655 25.24 23.9658 25.24 23.966 25.24C23.9662 25.24 23.9665 25.24 23.9667 25.24C23.967 25.24 23.9672 25.24 23.9674 25.24C23.9677 25.24 23.9679 25.24 23.9681 25.24C23.9684 25.24 23.9686 25.24 23.9688 25.24C23.9691 25.24 23.9693 25.24 23.9695 25.24C23.9698 25.24 23.97 25.24 23.9702 25.24C23.9705 25.24 23.9707 25.24 23.9709 25.24C23.9712 25.24 23.9714 25.24 23.9716 25.24C23.9719 25.24 23.9721 25.24 23.9723 25.24C23.9726 25.24 23.9728 25.24 23.973 25.24C23.9733 25.24 23.9735 25.24 23.9737 25.24C23.974 25.24 23.9742 25.24 23.9744 25.24C23.9747 25.24 23.9749 25.24 23.9751 25.24C23.9754 25.24 23.9756 25.24 23.9758 25.24C23.9761 25.24 23.9763 25.24 23.9765 25.24C23.9768 25.24 23.977 25.24 23.9772 25.24C23.9775 25.24 23.9777 25.24 23.9779 25.24C23.9782 25.24 23.9784 25.24 23.9786 25.24C23.9789 25.24 23.9791 25.24 23.9793 25.24C23.9796 25.24 23.9798 25.24 23.98 25.24C23.9803 25.24 23.9805 25.24 23.9807 25.24C23.9809 25.24 23.9812 25.24 23.9814 25.24C23.9816 25.24 23.9819 25.24 23.9821 25.24C23.9823 25.24 23.9826 25.24 23.9828 25.24C23.983 25.24 23.9833 25.24 23.9835 25.24C23.9837 25.24 23.984 25.24 23.9842 25.24C23.9844 25.24 23.9847 25.24 23.9849 25.24C23.9851 25.24 23.9854 25.24 23.9856 25.24C23.9858 25.24 23.9861 25.24 23.9863 25.24C23.9865 25.24 23.9868 25.24 23.987 25.24C23.9872 25.24 23.9874 25.24 23.9877 25.24C23.9879 25.24 23.9881 25.24 23.9884 25.24C23.9886 25.24 23.9888 25.24 23.9891 25.24C23.9893 25.24 23.9895 25.24 23.9898 25.24C23.99 25.24 23.9902 25.24 23.9905 25.24C23.9907 25.24 23.9909 25.24 23.9912 25.24C23.9914 25.24 23.9916 25.24 23.9918 25.24C23.9921 25.24 23.9923 25.24 23.9925 25.24C23.9928 25.24 23.993 25.24 23.9932 25.24C23.9935 25.24 23.9937 25.24 23.9939 25.24C23.9942 25.24 23.9944 25.24 23.9946 25.24C23.9949 25.24 23.9951 25.24 23.9953 25.24C23.9955 25.24 23.9958 25.24 23.996 25.24C23.9962 25.24 23.9965 25.24 23.9967 25.24C23.9969 25.24 23.9972 25.24 23.9974 25.24C23.9976 25.24 23.9979 25.24 23.9981 25.24C23.9983 25.24 23.9985 25.24 23.9988 25.24C23.999 25.24 23.9992 25.24 23.9995 25.24C23.9997 25.24 23.9999 25.24 24.0002 25.24C24.0004 25.24 24.0006 25.24 24.0009 25.24C24.0011 25.24 24.0013 25.24 24.0015 25.24C24.0018 25.24 24.002 25.24 24.0022 25.24C24.0025 25.24 24.0027 25.24 24.0029 25.24C24.0032 25.24 24.0034 25.24 24.0036 25.24C24.0038 25.24 24.0041 25.24 24.0043 25.24C24.0045 25.24 24.0048 25.24 24.005 25.24C24.0052 25.24 24.0055 25.24 24.0057 25.24C24.0059 25.24 24.0061 25.24 24.0064 25.24C24.0066 25.24 24.0068 25.24 24.0071 25.24C24.0073 25.24 24.0075 25.24 24.0077 25.24C24.008 25.24 24.0082 25.24 24.0084 25.24C24.0087 25.24 24.0089 25.24 24.0091 25.24C24.0094 25.24 24.0096 25.24 24.0098 25.24C24.01 25.24 24.0103 25.24 24.0105 25.24C24.0107 25.24 24.011 25.24 24.0112 25.24C24.0114 25.24 24.0116 25.24 24.0119 25.24C24.0121 25.24 24.0123 25.24 24.0126 25.24C24.0128 25.24 24.013 25.24 24.0133 25.24C24.0135 25.24 24.0137 25.24 24.0139 25.24C24.0142 25.24 24.0144 25.24 24.0146 25.24C24.0149 25.24 24.0151 25.24 24.0153 25.24C24.0155 25.24 24.0158 25.24 24.016 25.24C24.0162 25.24 24.0165 25.24 24.0167 25.24C24.0169 25.24 24.0171 25.24 24.0174 25.24C24.0176 25.24 24.0178 25.24 24.0181 25.24C24.0183 25.24 24.0185 25.24 24.0187 25.24C24.019 25.24 24.0192 25.24 24.0194 25.24C24.0197 25.24 24.0199 25.24 24.0201 25.24C24.0203 25.24 24.0206 25.24 24.0208 25.24C24.021 25.24 24.0212 25.24 24.0215 25.24C24.0217 25.24 24.0219 25.24 24.0222 25.24C24.0224 25.24 24.0226 25.24 24.0228 25.24C24.0231 25.24 24.0233 25.24 24.0235 25.24C24.0238 25.24 24.024 25.24 24.0242 25.24C24.0244 25.24 24.0247 25.24 24.0249 25.24C24.0251 25.24 24.0254 25.24 24.0256 25.24C24.0258 25.24 24.026 25.24 24.0263 25.24C24.0265 25.24 24.0267 25.24 24.0269 25.24C24.0272 25.24 24.0274 25.24 24.0276 25.24C24.0279 25.24 24.0281 25.24 24.0283 25.24C24.0285 25.24 24.0288 25.24 24.029 25.24C24.0292 25.24 24.0294 25.24 24.0297 25.24C24.0299 25.24 24.0301 25.24 24.0304 25.24C24.0306 25.24 24.0308 25.24 24.031 25.24C24.0313 25.24 24.0315 25.24 24.0317 25.24C24.0319 25.24 24.0322 25.24 24.0324 25.24C24.0326 25.24 24.0328 25.24 24.0331 25.24C24.0333 25.24 24.0335 25.24 24.0338 25.24C24.034 25.24 24.0342 25.24 24.0344 25.24C24.0347 25.24 24.0349 25.24 24.0351 25.24C24.0353 25.24 24.0356 25.24 24.0358 25.24C24.036 25.24 24.0362 25.24 24.0365 25.24C24.0367 25.24 24.0369 25.24 24.0372 25.24C24.0374 25.24 24.0376 25.24 24.0378 25.24C24.0381 25.24 24.0383 25.24 24.0385 25.24C24.0387 25.24 24.039 25.24 24.0392 25.24C24.0394 25.24 24.0396 25.24 24.0399 25.24C24.0401 25.24 24.0403 25.24 24.0405 25.24C24.0408 25.24 24.041 25.24 24.0412 25.24C24.0414 25.24 24.0417 25.24 24.0419 25.24C24.0421 25.24 24.0423 25.24 24.0426 25.24C24.0428 25.24 24.043 25.24 24.0433 25.24C24.0435 25.24 24.0437 25.24 24.0439 25.24C24.0442 25.24 24.0444 25.24 24.0446 25.24C24.0448 25.24 24.0451 25.24 24.0453 25.24C24.0455 25.24 24.0457 25.24 24.046 25.24C24.0462 25.24 24.0464 25.24 24.0466 25.24C24.0469 25.24 24.0471 25.24 24.0473 25.24C24.0475 25.24 24.0478 25.24 24.048 25.24C24.0482 25.24 24.0484 25.24 24.0487 25.24C24.0489 25.24 24.0491 25.24 24.0493 25.24C24.0496 25.24 24.0498 25.24 24.05 25.24C24.0502 25.24 24.0505 25.24 24.0507 25.24C24.0509 25.24 24.0511 25.24 24.0514 25.24C24.0516 25.24 24.0518 25.24 24.052 25.24C24.0523 25.24 24.0525 25.24 24.0527 25.24C24.0529 25.24 24.0532 25.24 24.0534 25.24C24.0536 25.24 24.0538 25.24 24.0541 25.24C24.0543 25.24 24.0545 25.24 24.0547 25.24C24.0549 25.24 24.0552 25.24 24.0554 25.24C24.0556 25.24 24.0558 25.24 24.0561 25.24C24.0563 25.24 24.0565 25.24 24.0567 25.24C24.057 25.24 24.0572 25.24 24.0574 25.24C24.0576 25.24 24.0579 25.24 24.0581 25.24C24.0583 25.24 24.0585 25.24 24.0588 25.24C24.059 25.24 24.0592 25.24 24.0594 25.24C24.0597 25.24 24.0599 25.24 24.0601 25.24C24.0603 25.24 24.0605 25.24 24.0608 25.24C24.061 25.24 24.0612 25.24 24.0614 25.24C24.0617 25.24 24.0619 25.24 24.0621 25.24C24.0623 25.24 24.0626 25.24 24.0628 25.24C24.063 25.24 24.0632 25.24 24.0635 25.24C24.0637 25.24 24.0639 25.24 24.0641 25.24C24.0643 25.24 24.0646 25.24 24.0648 25.24C24.065 25.24 24.0652 25.24 24.0655 25.24C24.0657 25.24 24.0659 25.24 24.0661 25.24C24.0664 25.24 24.0666 25.24 24.0668 25.24C24.067 25.24 24.0672 25.24 24.0675 25.24C24.0677 25.24 24.0679 25.24 24.0681 25.24C24.0684 25.24 24.0686 25.24 24.0688 25.24C24.069 25.24 24.0693 25.24 24.0695 25.24C24.0697 25.24 24.0699 25.24 24.0701 25.24C24.0704 25.24 24.0706 25.24 24.0708 25.24C24.071 25.24 24.0713 25.24 24.0715 25.24C24.0717 25.24 24.0719 25.24 24.0721 25.24C24.0724 25.24 24.0726 25.24 24.0728 25.24C24.073 25.24 24.0733 25.24 24.0735 25.24C24.0737 25.24 24.0739 25.24 24.0741 25.24C24.0744 25.24 24.0746 25.24 24.0748 25.24C24.075 25.24 24.0753 25.24 24.0755 25.24C24.0757 25.24 24.0759 25.24 24.0761 25.24C24.0764 25.24 24.0766 25.24 24.0768 25.24C24.077 25.24 24.0772 25.24 24.0775 25.24C24.0777 25.24 24.0779 25.24 24.0781 25.24C24.0784 25.24 24.0786 25.24 24.0788 25.24C24.079 25.24 24.0792 25.24 24.0795 25.24C24.0797 25.24 24.0799 25.24 24.0801 25.24C24.0804 25.24 24.0806 25.24 24.0808 25.24C24.081 25.24 24.0812 25.24 24.0815 25.24C24.0817 25.24 24.0819 25.24 24.0821 25.24C24.0823 25.24 24.0826 25.24 24.0828 25.24C24.083 25.24 24.0832 25.24 24.0834 25.24C24.0837 25.24 24.0839 25.24 24.0841 25.24C24.0843 25.24 24.0846 25.24 24.0848 25.24C24.085 25.24 24.0852 25.24 24.0854 25.24C24.0857 25.24 24.0859 25.24 24.0861 25.24C24.0863 25.24 24.0865 25.24 24.0868 25.24C24.087 25.24 24.0872 25.24 24.0874 25.24C24.0876 25.24 24.0879 25.24 24.0881 25.24C24.0883 25.24 24.0885 25.24 24.0887 25.24C24.089 25.24 24.0892 25.24 24.0894 25.24C24.0896 25.24 24.0898 25.24 24.0901 25.24C24.0903 25.24 24.0905 25.24 24.0907 25.24C24.0909 25.24 24.0912 25.24 24.0914 25.24C24.0916 25.24 24.0918 25.24 24.092 25.24C24.0923 25.24 24.0925 25.24 24.0927 25.24C24.0929 25.24 24.0931 25.24 24.0934 25.24C24.0936 25.24 24.0938 25.24 24.094 25.24C24.0942 25.24 24.0945 25.24 24.0947 25.24C24.0949 25.24 24.0951 25.24 24.0953 25.24C24.0956 25.24 24.0958 25.24 24.096 25.24C24.0962 25.24 24.0964 25.24 24.0967 25.24C24.0969 25.24 24.0971 25.24 24.0973 25.24C24.0975 25.24 24.0978 25.24 24.098 25.24C24.0982 25.24 24.0984 25.24 24.0986 25.24C24.0989 25.24 24.0991 25.24 24.0993 25.24C24.0995 25.24 24.0997 25.24 24.1 25.24C24.1002 25.24 24.1004 25.24 24.1006 25.24C24.1008 25.24 24.101 25.24 24.1013 25.24C24.1015 25.24 24.1017 25.24 24.1019 25.24C24.1021 25.24 24.1024 25.24 24.1026 25.24C24.1028 25.24 24.103 25.24 24.1032 25.24C24.1035 25.24 24.1037 25.24 24.1039 25.24C24.1041 25.24 24.1043 25.24 24.1045 25.24C24.1048 25.24 24.105 25.24 24.1052 25.24C24.1054 25.24 24.1056 25.24 24.1059 25.24C24.1061 25.24 24.1063 25.24 24.1065 25.24C24.1067 25.24 24.107 25.24 24.1072 25.24C24.1074 25.24 24.1076 25.24 24.1078 25.24C24.108 25.24 24.1083 25.24 24.1085 25.24C24.1087 25.24 24.1089 25.24 24.1091 25.24C24.1094 25.24 24.1096 25.24 24.1098 25.24C24.11 25.24 24.1102 25.24 24.1104 25.24C24.1107 25.24 24.1109 25.24 24.1111 25.24C24.1113 25.24 24.1115 25.24 24.1117 25.24C24.112 25.24 24.1122 25.24 24.1124 25.24C24.1126 25.24 24.1128 25.24 24.1131 25.24C24.1133 25.24 24.1135 25.24 24.1137 25.24C24.1139 25.24 24.1141 25.24 24.1144 25.24C24.1146 25.24 24.1148 25.24 24.115 25.24C24.1152 25.24 24.1154 25.24 24.1157 25.24C24.1159 25.24 24.1161 25.24 24.1163 25.24C24.1165 25.24 24.1168 25.24 24.117 25.24C24.1172 25.24 24.1174 25.24 24.1176 25.24C24.1178 25.24 24.1181 25.24 24.1183 25.24C24.1185 25.24 24.1187 25.24 24.1189 25.24C24.1191 25.24 24.1194 25.24 24.1196 25.24C24.1198 25.24 24.12 25.24 24.1202 25.24C24.1204 25.24 24.1207 25.24 24.1209 25.24C24.1211 25.24 24.1213 25.24 24.1215 25.24C24.1217 25.24 24.122 25.24 24.1222 25.24C24.1224 25.24 24.1226 25.24 24.1228 25.24C24.123 25.24 24.1233 25.24 24.1235 25.24C24.1237 25.24 24.1239 25.24 24.1241 25.24C24.1243 25.24 24.1246 25.24 24.1248 25.24C24.125 25.24 24.1252 25.24 24.1254 25.24C24.1256 25.24 24.1258 25.24 24.1261 25.24C24.1263 25.24 24.1265 25.24 24.1267 25.24C24.1269 25.24 24.1271 25.24 24.1274 25.24C24.1276 25.24 24.1278 25.24 24.128 25.24C24.1282 25.24 24.1284 25.24 24.1287 25.24C24.1289 25.24 24.1291 25.24 24.1293 25.24C24.1295 25.24 24.1297 25.24 24.1299 25.24C24.1302 25.24 24.1304 25.24 24.1306 25.24C24.1308 25.24 24.131 25.24 24.1312 25.24C24.1315 25.24 24.1317 25.24 24.1319 25.24C24.1321 25.24 24.1323 25.24 24.1325 25.24C24.1328 25.24 24.133 25.24 24.1332 25.24C24.1334 25.24 24.1336 25.24 24.1338 25.24C24.134 25.24 24.1343 25.24 24.1345 25.24C24.1347 25.24 24.1349 25.24 24.1351 25.24C24.1353 25.24 24.1355 25.24 24.1358 25.24C24.136 25.24 24.1362 25.24 24.1364 25.24C24.1366 25.24 24.1368 25.24 24.1371 25.24C24.1373 25.24 24.1375 25.24 24.1377 25.24C24.1379 25.24 24.1381 25.24 24.1383 25.24C24.1386 25.24 24.1388 25.24 24.139 25.24C24.1392 25.24 24.1394 25.24 24.1396 25.24C24.1398 25.24 24.1401 25.24 24.1403 25.24C24.1405 25.24 24.1407 25.24 24.1409 25.24C24.1411 25.24 24.1413 25.24 24.1416 25.24C24.1418 25.24 24.142 25.24 24.1422 25.24C24.1424 25.24 24.1426 25.24 24.1428 25.24C24.1431 25.24 24.1433 25.24 24.1435 25.24C24.1437 25.24 24.1439 25.24 24.1441 25.24C24.1443 25.24 24.1446 25.24 24.1448 25.24C24.145 25.24 24.1452 25.24 24.1454 25.24C24.1456 25.24 24.1458 25.24 24.146 25.24C24.1463 25.24 24.1465 25.24 24.1467 25.24C24.1469 25.24 24.1471 25.24 24.1473 25.24C24.1475 25.24 24.1478 25.24 24.148 25.24C24.1482 25.24 24.1484 25.24 24.1486 25.24C24.1488 25.24 24.149 25.24 24.1493 25.24C24.1495 25.24 24.1497 25.24 24.1499 25.24C24.1501 25.24 24.1503 25.24 24.1505 25.24C24.1507 25.24 24.151 25.24 24.1512 25.24C24.1514 25.24 24.1516 25.24 24.1518 25.24C24.152 25.24 24.1522 25.24 24.1524 25.24C24.1527 25.24 24.1529 25.24 24.1531 25.24C24.1533 25.24 24.1535 25.24 24.1537 25.24C24.1539 25.24 24.1542 25.24 24.1544 25.24C24.1546 25.24 24.1548 25.24 24.155 25.24C24.1552 25.24 24.1554 25.24 24.1556 25.24C24.1559 25.24 24.1561 25.24 24.1563 25.24C24.1565 25.24 24.1567 25.24 24.1569 25.24C24.1571 25.24 24.1573 25.24 24.1576 25.24C24.1578 25.24 24.158 25.24 24.1582 25.24C24.1584 25.24 24.1586 25.24 24.1588 25.24C24.159 25.24 24.1592 25.24 24.1595 25.24C24.1597 25.24 24.1599 25.24 24.1601 25.24C24.1603 25.24 24.1605 25.24 24.1607 25.24C24.1609 25.24 24.1612 25.24 24.1614 25.24C24.1616 25.24 24.1618 25.24 24.162 25.24C24.1622 25.24 24.1624 25.24 24.1626 25.24C24.1629 25.24 24.1631 25.24 24.1633 25.24C24.1635 25.24 24.1637 25.24 24.1639 25.24C24.1641 25.24 24.1643 25.24 24.1645 25.24C24.1648 25.24 24.165 25.24 24.1652 25.24C24.1654 25.24 24.1656 25.24 24.1658 25.24C24.166 25.24 24.1662 25.24 24.1664 25.24C24.1667 25.24 24.1669 25.24 24.1671 25.24C24.1673 25.24 24.1675 25.24 24.1677 25.24C24.1679 25.24 24.1681 25.24 24.1683 25.24C24.1686 25.24 24.1688 25.24 24.169 25.24C24.1692 25.24 24.1694 25.24 24.1696 25.24C24.1698 25.24 24.17 25.24 24.1702 25.24C24.1705 25.24 24.1707 25.24 24.1709 25.24C24.1711 25.24 24.1713 25.24 24.1715 25.24C24.1717 25.24 24.1719 25.24 24.1721 25.24C24.1724 25.24 24.1726 25.24 24.1728 25.24C24.173 25.24 24.1732 25.24 24.1734 25.24C24.1736 25.24 24.1738 25.24 24.174 25.24C24.1742 25.24 24.1745 25.24 24.1747 25.24C24.1749 25.24 24.1751 25.24 24.1753 25.24C24.1755 25.24 24.1757 25.24 24.1759 25.24C24.1761 25.24 24.1763 25.24 24.1766 25.24C24.1768 25.24 24.177 25.24 24.1772 25.24C24.1774 25.24 24.1776 25.24 24.1778 25.24C24.178 25.24 24.1782 25.24 24.1784 25.24C24.1787 25.24 24.1789 25.24 24.1791 25.24C24.1793 25.24 24.1795 25.24 24.1797 25.24C24.1799 25.24 24.1801 25.24 24.1803 25.24C24.1805 25.24 24.1808 25.24 24.181 25.24C24.1812 25.24 24.1814 25.24 24.1816 25.24C24.1818 25.24 24.182 25.24 24.1822 25.24C24.1824 25.24 24.1826 25.24 24.1828 25.24C24.1831 25.24 24.1833 25.24 24.1835 25.24C24.1837 25.24 24.1839 25.24 24.1841 25.24C24.1843 25.24 24.1845 25.24 24.1847 25.24C24.1849 25.24 24.1851 25.24 24.1854 25.24C24.1856 25.24 24.1858 25.24 24.186 25.24C24.1862 25.24 24.1864 25.24 24.1866 25.24C24.1868 25.24 24.187 25.24 24.1872 25.24C24.1874 25.24 24.1877 25.24 24.1879 25.24C24.1881 25.24 24.1883 25.24 24.1885 25.24C24.1887 25.24 24.1889 25.24 24.1891 25.24C24.1893 25.24 24.1895 25.24 24.1897 25.24C24.1899 25.24 24.1902 25.24 24.1904 25.24C24.1906 25.24 24.1908 25.24 24.191 25.24C24.1912 25.24 24.1914 25.24 24.1916 25.24C24.1918 25.24 24.192 25.24 24.1922 25.24C24.1924 25.24 24.1927 25.24 24.1929 25.24C24.1931 25.24 24.1933 25.24 24.1935 25.24C24.1937 25.24 24.1939 25.24 24.1941 25.24C24.1943 25.24 24.1945 25.24 24.1947 25.24C24.1949 25.24 24.1952 25.24 24.1954 25.24C24.1956 25.24 24.1958 25.24 24.196 25.24C24.1962 25.24 24.1964 25.24 24.1966 25.24C24.1968 25.24 24.197 25.24 24.1972 25.24C24.1974 25.24 24.1976 25.24 24.1978 25.24C24.1981 25.24 24.1983 25.24 24.1985 25.24C24.1987 25.24 24.1989 25.24 24.1991 25.24C24.1993 25.24 24.1995 25.24 24.1997 25.24C24.1999 25.24 24.2001 25.24 24.2003 25.24C24.2005 25.24 24.2008 25.24 24.201 25.24C24.2012 25.24 24.2014 25.24 24.2016 25.24C24.2018 25.24 24.202 25.24 24.2022 25.24C24.2024 25.24 24.2026 25.24 24.2028 25.24C24.203 25.24 24.2032 25.24 24.2034 25.24C24.2036 25.24 24.2039 25.24 24.2041 25.24C24.2043 25.24 24.2045 25.24 24.2047 25.24C24.2049 25.24 24.2051 25.24 24.2053 25.24C24.2055 25.24 24.2057 25.24 24.2059 25.24C24.2061 25.24 24.2063 25.24 24.2065 25.24C24.2067 25.24 24.207 25.24 24.2072 25.24C24.2074 25.24 24.2076 25.24 24.2078 25.24C24.208 25.24 24.2082 25.24 24.2084 25.24C24.2086 25.24 24.2088 25.24 24.209 25.24C24.2092 25.24 24.2094 25.24 24.2096 25.24C24.2098 25.24 24.21 25.24 24.2102 25.24C24.2105 25.24 24.2107 25.24 24.2109 25.24C24.2111 25.24 24.2113 25.24 24.2115 25.24C24.2117 25.24 24.2119 25.24 24.2121 25.24C24.2123 25.24 24.2125 25.24 24.2127 25.24C24.2129 25.24 24.2131 25.24 24.2133 25.24C24.2135 25.24 24.2137 25.24 24.214 25.24C24.2142 25.24 24.2144 25.24 24.2146 25.24C24.2148 25.24 24.215 25.24 24.2152 25.24C24.2154 25.24 24.2156 25.24 24.2158 25.24C24.216 25.24 24.2162 25.24 24.2164 25.24C24.2166 25.24 24.2168 25.24 24.217 25.24C24.2172 25.24 24.2174 25.24 24.2176 25.24C24.2179 25.24 24.2181 25.24 24.2183 25.24C24.2185 25.24 24.2187 25.24 24.2189 25.24C24.2191 25.24 24.2193 25.24 24.2195 25.24C24.2197 25.24 24.2199 25.24 24.2201 25.24C24.2203 25.24 24.2205 25.24 24.2207 25.24C24.2209 25.24 24.2211 25.24 24.2213 25.24C24.2215 25.24 24.2217 25.24 24.2219 25.24C24.2222 25.24 24.2224 25.24 24.2226 25.24C24.2228 25.24 24.223 25.24 24.2232 25.24C24.2234 25.24 24.2236 25.24 24.2238 25.24C24.224 25.24 24.2242 25.24 24.2244 25.24C24.2246 25.24 24.2248 25.24 24.225 25.24C24.2252 25.24 24.2254 25.24 24.2256 25.24C24.2258 25.24 24.226 25.24 24.2262 25.24C24.2264 25.24 24.2266 25.24 24.2268 25.24C24.227 25.24 24.2273 25.24 24.2275 25.24C24.2277 25.24 24.2279 25.24 24.2281 25.24C24.2283 25.24 24.2285 25.24 24.2287 25.24C24.2289 25.24 24.2291 25.24 24.2293 25.24C24.2295 25.24 24.2297 25.24 24.2299 25.24C24.2301 25.24 24.2303 25.24 24.2305 25.24C24.2307 25.24 24.2309 25.24 24.2311 25.24C24.2313 25.24 24.2315 25.24 24.2317 25.24C24.2319 25.24 24.2321 25.24 24.2323 25.24C24.2325 25.24 24.2327 25.24 24.2329 25.24C24.2332 25.24 24.2334 25.24 24.2336 25.24C24.2338 25.24 24.234 25.24 24.2342 25.24C24.2344 25.24 24.2346 25.24 24.2348 25.24C24.235 25.24 24.2352 25.24 24.2354 25.24C24.2356 25.24 24.2358 25.24 24.236 25.24C24.2362 25.24 24.2364 25.24 24.2366 25.24C24.2368 25.24 24.237 25.24 24.2372 25.24C24.2374 25.24 24.2376 25.24 24.2378 25.24C24.238 25.24 24.2382 25.24 24.2384 25.24C24.2386 25.24 24.2388 25.24 24.239 25.24C24.2392 25.24 24.2394 25.24 24.2396 25.24C24.2398 25.24 24.24 25.24 24.2402 25.24C24.2404 25.24 24.2406 25.24 24.2409 25.24C24.2411 25.24 24.2413 25.24 24.2415 25.24C24.2417 25.24 24.2419 25.24 24.2421 25.24C24.2423 25.24 24.2425 25.24 24.2427 25.24C24.2429 25.24 24.2431 25.24 24.2433 25.24C24.2435 25.24 24.2437 25.24 24.2439 25.24C24.2441 25.24 24.2443 25.24 24.2445 25.24C24.2447 25.24 24.2449 25.24 24.2451 25.24C24.2453 25.24 24.2455 25.24 24.2457 25.24C24.2459 25.24 24.2461 25.24 24.2463 25.24C24.2465 25.24 24.2467 25.24 24.2469 25.24C24.2471 25.24 24.2473 25.24 24.2475 25.24C24.2477 25.24 24.2479 25.24 24.2481 25.24C24.2483 25.24 24.2485 25.24 24.2487 25.24C24.2489 25.24 24.2491 25.24 24.2493 25.24C24.2495 25.24 24.2497 25.24 24.2499 25.24C24.2501 25.24 24.2503 25.24 24.2505 25.24C24.2507 25.24 24.2509 25.24 24.2511 25.24C24.2513 25.24 24.2515 25.24 24.2517 25.24C24.2519 25.24 24.2521 25.24 24.2523 25.24C24.2525 25.24 24.2527 25.24 24.2529 25.24C24.2531 25.24 24.2533 25.24 24.2535 25.24C24.2537 25.24 24.2539 25.24 24.2541 25.24C24.2543 25.24 24.2545 25.24 24.2547 25.24C24.2549 25.24 24.2551 25.24 24.2553 25.24C24.2555 25.24 24.2557 25.24 24.2559 25.24C24.2561 25.24 24.2563 25.24 24.2565 25.24C24.2567 25.24 24.2569 25.24 24.2571 25.24C24.2573 25.24 24.2575 25.24 24.2577 25.24C24.2579 25.24 24.2581 25.24 24.2583 25.24C24.2585 25.24 24.2587 25.24 24.2589 25.24C24.2591 25.24 24.2593 25.24 24.2595 25.24C24.2597 25.24 24.2599 25.24 24.2601 25.24C24.2603 25.24 24.2605 25.24 24.2607 25.24C24.2609 25.24 24.2611 25.24 24.2613 25.24C24.2615 25.24 24.2617 25.24 24.2619 25.24C24.2621 25.24 24.2623 25.24 24.2625 25.24C24.2627 25.24 24.2629 25.24 24.2631 25.24C24.2633 25.24 24.2635 25.24 24.2637 25.24C24.2639 25.24 24.2641 25.24 24.2643 25.24C24.2645 25.24 24.2647 25.24 24.2649 25.24C24.2651 25.24 24.2653 25.24 24.2655 25.24C24.2657 25.24 24.2659 25.24 24.2661 25.24C24.2663 25.24 24.2665 25.24 24.2667 25.24C24.2669 25.24 24.2671 25.24 24.2673 25.24C24.2675 25.24 24.2677 25.24 24.2679 25.24C24.2681 25.24 24.2683 25.24 24.2685 25.24C24.2687 25.24 24.2689 25.24 24.2691 25.24C24.2693 25.24 24.2695 25.24 24.2697 25.24C24.2699 25.24 24.2701 25.24 24.2703 25.24C24.2705 25.24 24.2707 25.24 24.2709 25.24C24.2711 25.24 24.2713 25.24 24.2715 25.24C24.2717 25.24 24.2719 25.24 24.2721 25.24C24.2723 25.24 24.2725 25.24 24.2727 25.24C24.2729 25.24 24.2731 25.24 24.2733 25.24C24.2735 25.24 24.2737 25.24 24.2739 25.24C24.274 25.24 24.2742 25.24 24.2744 25.24C24.2746 25.24 24.2748 25.24 24.275 25.24C24.2752 25.24 24.2754 25.24 24.2756 25.24C24.2758 25.24 24.276 25.24 24.2762 25.24C24.2764 25.24 24.2766 25.24 24.2768 25.24C24.277 25.24 24.2772 25.24 24.2774 25.24C24.2776 25.24 24.2778 25.24 24.278 25.24C24.2782 25.24 24.2784 25.24 24.2786 25.24C24.2788 25.24 24.279 25.24 24.2792 25.24C24.2794 25.24 24.2796 25.24 24.2798 25.24C24.28 25.24 24.2802 25.24 24.2804 25.24C24.2806 25.24 24.2808 25.24 24.281 25.24C24.2812 25.24 24.2814 25.24 24.2816 25.24C24.2817 25.24 24.2819 25.24 24.2821 25.24C24.2823 25.24 24.2825 25.24 24.2827 25.24C24.2829 25.24 24.2831 25.24 24.2833 25.24C24.2835 25.24 24.2837 25.24 24.2839 25.24C24.2841 25.24 24.2843 25.24 24.2845 25.24C24.2847 25.24 24.2849 25.24 24.2851 25.24C24.2853 25.24 24.2855 25.24 24.2857 25.24C24.2859 25.24 24.2861 25.24 24.2863 25.24C24.2865 25.24 24.2867 25.24 24.2869 25.24C24.2871 25.24 24.2873 25.24 24.2874 25.24C24.2876 25.24 24.2878 25.24 24.288 25.24C24.2882 25.24 24.2884 25.24 24.2886 25.24C24.2888 25.24 24.289 25.24 24.2892 25.24C24.2894 25.24 24.2896 25.24 24.2898 25.24C24.29 25.24 24.2902 25.24 24.2904 25.24C24.2906 25.24 24.2908 25.24 24.291 25.24C24.2912 25.24 24.2914 25.24 24.2916 25.24C24.2918 25.24 24.292 25.24 24.2921 25.24C24.2923 25.24 24.2925 25.24 24.2927 25.24C24.2929 25.24 24.2931 25.24 24.2933 25.24C24.2935 25.24 24.2937 25.24 24.2939 25.24V24.74C24.2937 24.74 24.2935 24.74 24.2933 24.74C24.2931 24.74 24.2929 24.74 24.2927 24.74C24.2925 24.74 24.2923 24.74 24.2921 24.74C24.292 24.74 24.2918 24.74 24.2916 24.74C24.2914 24.74 24.2912 24.74 24.291 24.74C24.2908 24.74 24.2906 24.74 24.2904 24.74C24.2902 24.74 24.29 24.74 24.2898 24.74C24.2896 24.74 24.2894 24.74 24.2892 24.74C24.289 24.74 24.2888 24.74 24.2886 24.74C24.2884 24.74 24.2882 24.74 24.288 24.74C24.2878 24.74 24.2876 24.74 24.2874 24.74C24.2873 24.74 24.2871 24.74 24.2869 24.74C24.2867 24.74 24.2865 24.74 24.2863 24.74C24.2861 24.74 24.2859 24.74 24.2857 24.74C24.2855 24.74 24.2853 24.74 24.2851 24.74C24.2849 24.74 24.2847 24.74 24.2845 24.74C24.2843 24.74 24.2841 24.74 24.2839 24.74C24.2837 24.74 24.2835 24.74 24.2833 24.74C24.2831 24.74 24.2829 24.74 24.2827 24.74C24.2825 24.74 24.2823 24.74 24.2821 24.74C24.2819 24.74 24.2817 24.74 24.2816 24.74C24.2814 24.74 24.2812 24.74 24.281 24.74C24.2808 24.74 24.2806 24.74 24.2804 24.74C24.2802 24.74 24.28 24.74 24.2798 24.74C24.2796 24.74 24.2794 24.74 24.2792 24.74C24.279 24.74 24.2788 24.74 24.2786 24.74C24.2784 24.74 24.2782 24.74 24.278 24.74C24.2778 24.74 24.2776 24.74 24.2774 24.74C24.2772 24.74 24.277 24.74 24.2768 24.74C24.2766 24.74 24.2764 24.74 24.2762 24.74C24.276 24.74 24.2758 24.74 24.2756 24.74C24.2754 24.74 24.2752 24.74 24.275 24.74C24.2748 24.74 24.2746 24.74 24.2744 24.74C24.2742 24.74 24.274 24.74 24.2739 24.74C24.2737 24.74 24.2735 24.74 24.2733 24.74C24.2731 24.74 24.2729 24.74 24.2727 24.74C24.2725 24.74 24.2723 24.74 24.2721 24.74C24.2719 24.74 24.2717 24.74 24.2715 24.74C24.2713 24.74 24.2711 24.74 24.2709 24.74C24.2707 24.74 24.2705 24.74 24.2703 24.74C24.2701 24.74 24.2699 24.74 24.2697 24.74C24.2695 24.74 24.2693 24.74 24.2691 24.74C24.2689 24.74 24.2687 24.74 24.2685 24.74C24.2683 24.74 24.2681 24.74 24.2679 24.74C24.2677 24.74 24.2675 24.74 24.2673 24.74C24.2671 24.74 24.2669 24.74 24.2667 24.74C24.2665 24.74 24.2663 24.74 24.2661 24.74C24.2659 24.74 24.2657 24.74 24.2655 24.74C24.2653 24.74 24.2651 24.74 24.2649 24.74C24.2647 24.74 24.2645 24.74 24.2643 24.74C24.2641 24.74 24.2639 24.74 24.2637 24.74C24.2635 24.74 24.2633 24.74 24.2631 24.74C24.2629 24.74 24.2627 24.74 24.2625 24.74C24.2623 24.74 24.2621 24.74 24.2619 24.74C24.2617 24.74 24.2615 24.74 24.2613 24.74C24.2611 24.74 24.2609 24.74 24.2607 24.74C24.2605 24.74 24.2603 24.74 24.2601 24.74C24.2599 24.74 24.2597 24.74 24.2595 24.74C24.2593 24.74 24.2591 24.74 24.2589 24.74C24.2587 24.74 24.2585 24.74 24.2583 24.74C24.2581 24.74 24.2579 24.74 24.2577 24.74C24.2575 24.74 24.2573 24.74 24.2571 24.74C24.2569 24.74 24.2567 24.74 24.2565 24.74C24.2563 24.74 24.2561 24.74 24.2559 24.74C24.2557 24.74 24.2555 24.74 24.2553 24.74C24.2551 24.74 24.2549 24.74 24.2547 24.74C24.2545 24.74 24.2543 24.74 24.2541 24.74C24.2539 24.74 24.2537 24.74 24.2535 24.74C24.2533 24.74 24.2531 24.74 24.2529 24.74C24.2527 24.74 24.2525 24.74 24.2523 24.74C24.2521 24.74 24.2519 24.74 24.2517 24.74C24.2515 24.74 24.2513 24.74 24.2511 24.74C24.2509 24.74 24.2507 24.74 24.2505 24.74C24.2503 24.74 24.2501 24.74 24.2499 24.74C24.2497 24.74 24.2495 24.74 24.2493 24.74C24.2491 24.74 24.2489 24.74 24.2487 24.74C24.2485 24.74 24.2483 24.74 24.2481 24.74C24.2479 24.74 24.2477 24.74 24.2475 24.74C24.2473 24.74 24.2471 24.74 24.2469 24.74C24.2467 24.74 24.2465 24.74 24.2463 24.74C24.2461 24.74 24.2459 24.74 24.2457 24.74C24.2455 24.74 24.2453 24.74 24.2451 24.74C24.2449 24.74 24.2447 24.74 24.2445 24.74C24.2443 24.74 24.2441 24.74 24.2439 24.74C24.2437 24.74 24.2435 24.74 24.2433 24.74C24.2431 24.74 24.2429 24.74 24.2427 24.74C24.2425 24.74 24.2423 24.74 24.2421 24.74C24.2419 24.74 24.2417 24.74 24.2415 24.74C24.2413 24.74 24.2411 24.74 24.2409 24.74C24.2406 24.74 24.2404 24.74 24.2402 24.74C24.24 24.74 24.2398 24.74 24.2396 24.74C24.2394 24.74 24.2392 24.74 24.239 24.74C24.2388 24.74 24.2386 24.74 24.2384 24.74C24.2382 24.74 24.238 24.74 24.2378 24.74C24.2376 24.74 24.2374 24.74 24.2372 24.74C24.237 24.74 24.2368 24.74 24.2366 24.74C24.2364 24.74 24.2362 24.74 24.236 24.74C24.2358 24.74 24.2356 24.74 24.2354 24.74C24.2352 24.74 24.235 24.74 24.2348 24.74C24.2346 24.74 24.2344 24.74 24.2342 24.74C24.234 24.74 24.2338 24.74 24.2336 24.74C24.2334 24.74 24.2332 24.74 24.2329 24.74C24.2327 24.74 24.2325 24.74 24.2323 24.74C24.2321 24.74 24.2319 24.74 24.2317 24.74C24.2315 24.74 24.2313 24.74 24.2311 24.74C24.2309 24.74 24.2307 24.74 24.2305 24.74C24.2303 24.74 24.2301 24.74 24.2299 24.74C24.2297 24.74 24.2295 24.74 24.2293 24.74C24.2291 24.74 24.2289 24.74 24.2287 24.74C24.2285 24.74 24.2283 24.74 24.2281 24.74C24.2279 24.74 24.2277 24.74 24.2275 24.74C24.2273 24.74 24.227 24.74 24.2268 24.74C24.2266 24.74 24.2264 24.74 24.2262 24.74C24.226 24.74 24.2258 24.74 24.2256 24.74C24.2254 24.74 24.2252 24.74 24.225 24.74C24.2248 24.74 24.2246 24.74 24.2244 24.74C24.2242 24.74 24.224 24.74 24.2238 24.74C24.2236 24.74 24.2234 24.74 24.2232 24.74C24.223 24.74 24.2228 24.74 24.2226 24.74C24.2224 24.74 24.2222 24.74 24.2219 24.74C24.2217 24.74 24.2215 24.74 24.2213 24.74C24.2211 24.74 24.2209 24.74 24.2207 24.74C24.2205 24.74 24.2203 24.74 24.2201 24.74C24.2199 24.74 24.2197 24.74 24.2195 24.74C24.2193 24.74 24.2191 24.74 24.2189 24.74C24.2187 24.74 24.2185 24.74 24.2183 24.74C24.2181 24.74 24.2179 24.74 24.2176 24.74C24.2174 24.74 24.2172 24.74 24.217 24.74C24.2168 24.74 24.2166 24.74 24.2164 24.74C24.2162 24.74 24.216 24.74 24.2158 24.74C24.2156 24.74 24.2154 24.74 24.2152 24.74C24.215 24.74 24.2148 24.74 24.2146 24.74C24.2144 24.74 24.2142 24.74 24.214 24.74C24.2137 24.74 24.2135 24.74 24.2133 24.74C24.2131 24.74 24.2129 24.74 24.2127 24.74C24.2125 24.74 24.2123 24.74 24.2121 24.74C24.2119 24.74 24.2117 24.74 24.2115 24.74C24.2113 24.74 24.2111 24.74 24.2109 24.74C24.2107 24.74 24.2105 24.74 24.2102 24.74C24.21 24.74 24.2098 24.74 24.2096 24.74C24.2094 24.74 24.2092 24.74 24.209 24.74C24.2088 24.74 24.2086 24.74 24.2084 24.74C24.2082 24.74 24.208 24.74 24.2078 24.74C24.2076 24.74 24.2074 24.74 24.2072 24.74C24.207 24.74 24.2067 24.74 24.2065 24.74C24.2063 24.74 24.2061 24.74 24.2059 24.74C24.2057 24.74 24.2055 24.74 24.2053 24.74C24.2051 24.74 24.2049 24.74 24.2047 24.74C24.2045 24.74 24.2043 24.74 24.2041 24.74C24.2039 24.74 24.2036 24.74 24.2034 24.74C24.2032 24.74 24.203 24.74 24.2028 24.74C24.2026 24.74 24.2024 24.74 24.2022 24.74C24.202 24.74 24.2018 24.74 24.2016 24.74C24.2014 24.74 24.2012 24.74 24.201 24.74C24.2008 24.74 24.2005 24.74 24.2003 24.74C24.2001 24.74 24.1999 24.74 24.1997 24.74C24.1995 24.74 24.1993 24.74 24.1991 24.74C24.1989 24.74 24.1987 24.74 24.1985 24.74C24.1983 24.74 24.1981 24.74 24.1978 24.74C24.1976 24.74 24.1974 24.74 24.1972 24.74C24.197 24.74 24.1968 24.74 24.1966 24.74C24.1964 24.74 24.1962 24.74 24.196 24.74C24.1958 24.74 24.1956 24.74 24.1954 24.74C24.1952 24.74 24.1949 24.74 24.1947 24.74C24.1945 24.74 24.1943 24.74 24.1941 24.74C24.1939 24.74 24.1937 24.74 24.1935 24.74C24.1933 24.74 24.1931 24.74 24.1929 24.74C24.1927 24.74 24.1924 24.74 24.1922 24.74C24.192 24.74 24.1918 24.74 24.1916 24.74C24.1914 24.74 24.1912 24.74 24.191 24.74C24.1908 24.74 24.1906 24.74 24.1904 24.74C24.1902 24.74 24.1899 24.74 24.1897 24.74C24.1895 24.74 24.1893 24.74 24.1891 24.74C24.1889 24.74 24.1887 24.74 24.1885 24.74C24.1883 24.74 24.1881 24.74 24.1879 24.74C24.1877 24.74 24.1874 24.74 24.1872 24.74C24.187 24.74 24.1868 24.74 24.1866 24.74C24.1864 24.74 24.1862 24.74 24.186 24.74C24.1858 24.74 24.1856 24.74 24.1854 24.74C24.1851 24.74 24.1849 24.74 24.1847 24.74C24.1845 24.74 24.1843 24.74 24.1841 24.74C24.1839 24.74 24.1837 24.74 24.1835 24.74C24.1833 24.74 24.1831 24.74 24.1828 24.74C24.1826 24.74 24.1824 24.74 24.1822 24.74C24.182 24.74 24.1818 24.74 24.1816 24.74C24.1814 24.74 24.1812 24.74 24.181 24.74C24.1808 24.74 24.1805 24.74 24.1803 24.74C24.1801 24.74 24.1799 24.74 24.1797 24.74C24.1795 24.74 24.1793 24.74 24.1791 24.74C24.1789 24.74 24.1787 24.74 24.1784 24.74C24.1782 24.74 24.178 24.74 24.1778 24.74C24.1776 24.74 24.1774 24.74 24.1772 24.74C24.177 24.74 24.1768 24.74 24.1766 24.74C24.1763 24.74 24.1761 24.74 24.1759 24.74C24.1757 24.74 24.1755 24.74 24.1753 24.74C24.1751 24.74 24.1749 24.74 24.1747 24.74C24.1745 24.74 24.1742 24.74 24.174 24.74C24.1738 24.74 24.1736 24.74 24.1734 24.74C24.1732 24.74 24.173 24.74 24.1728 24.74C24.1726 24.74 24.1724 24.74 24.1721 24.74C24.1719 24.74 24.1717 24.74 24.1715 24.74C24.1713 24.74 24.1711 24.74 24.1709 24.74C24.1707 24.74 24.1705 24.74 24.1702 24.74C24.17 24.74 24.1698 24.74 24.1696 24.74C24.1694 24.74 24.1692 24.74 24.169 24.74C24.1688 24.74 24.1686 24.74 24.1683 24.74C24.1681 24.74 24.1679 24.74 24.1677 24.74C24.1675 24.74 24.1673 24.74 24.1671 24.74C24.1669 24.74 24.1667 24.74 24.1664 24.74C24.1662 24.74 24.166 24.74 24.1658 24.74C24.1656 24.74 24.1654 24.74 24.1652 24.74C24.165 24.74 24.1648 24.74 24.1645 24.74C24.1643 24.74 24.1641 24.74 24.1639 24.74C24.1637 24.74 24.1635 24.74 24.1633 24.74C24.1631 24.74 24.1629 24.74 24.1626 24.74C24.1624 24.74 24.1622 24.74 24.162 24.74C24.1618 24.74 24.1616 24.74 24.1614 24.74C24.1612 24.74 24.1609 24.74 24.1607 24.74C24.1605 24.74 24.1603 24.74 24.1601 24.74C24.1599 24.74 24.1597 24.74 24.1595 24.74C24.1592 24.74 24.159 24.74 24.1588 24.74C24.1586 24.74 24.1584 24.74 24.1582 24.74C24.158 24.74 24.1578 24.74 24.1576 24.74C24.1573 24.74 24.1571 24.74 24.1569 24.74C24.1567 24.74 24.1565 24.74 24.1563 24.74C24.1561 24.74 24.1559 24.74 24.1556 24.74C24.1554 24.74 24.1552 24.74 24.155 24.74C24.1548 24.74 24.1546 24.74 24.1544 24.74C24.1542 24.74 24.1539 24.74 24.1537 24.74C24.1535 24.74 24.1533 24.74 24.1531 24.74C24.1529 24.74 24.1527 24.74 24.1524 24.74C24.1522 24.74 24.152 24.74 24.1518 24.74C24.1516 24.74 24.1514 24.74 24.1512 24.74C24.151 24.74 24.1507 24.74 24.1505 24.74C24.1503 24.74 24.1501 24.74 24.1499 24.74C24.1497 24.74 24.1495 24.74 24.1493 24.74C24.149 24.74 24.1488 24.74 24.1486 24.74C24.1484 24.74 24.1482 24.74 24.148 24.74C24.1478 24.74 24.1475 24.74 24.1473 24.74C24.1471 24.74 24.1469 24.74 24.1467 24.74C24.1465 24.74 24.1463 24.74 24.146 24.74C24.1458 24.74 24.1456 24.74 24.1454 24.74C24.1452 24.74 24.145 24.74 24.1448 24.74C24.1446 24.74 24.1443 24.74 24.1441 24.74C24.1439 24.74 24.1437 24.74 24.1435 24.74C24.1433 24.74 24.1431 24.74 24.1428 24.74C24.1426 24.74 24.1424 24.74 24.1422 24.74C24.142 24.74 24.1418 24.74 24.1416 24.74C24.1413 24.74 24.1411 24.74 24.1409 24.74C24.1407 24.74 24.1405 24.74 24.1403 24.74C24.1401 24.74 24.1398 24.74 24.1396 24.74C24.1394 24.74 24.1392 24.74 24.139 24.74C24.1388 24.74 24.1386 24.74 24.1383 24.74C24.1381 24.74 24.1379 24.74 24.1377 24.74C24.1375 24.74 24.1373 24.74 24.1371 24.74C24.1368 24.74 24.1366 24.74 24.1364 24.74C24.1362 24.74 24.136 24.74 24.1358 24.74C24.1355 24.74 24.1353 24.74 24.1351 24.74C24.1349 24.74 24.1347 24.74 24.1345 24.74C24.1343 24.74 24.134 24.74 24.1338 24.74C24.1336 24.74 24.1334 24.74 24.1332 24.74C24.133 24.74 24.1328 24.74 24.1325 24.74C24.1323 24.74 24.1321 24.74 24.1319 24.74C24.1317 24.74 24.1315 24.74 24.1312 24.74C24.131 24.74 24.1308 24.74 24.1306 24.74C24.1304 24.74 24.1302 24.74 24.1299 24.74C24.1297 24.74 24.1295 24.74 24.1293 24.74C24.1291 24.74 24.1289 24.74 24.1287 24.74C24.1284 24.74 24.1282 24.74 24.128 24.74C24.1278 24.74 24.1276 24.74 24.1274 24.74C24.1271 24.74 24.1269 24.74 24.1267 24.74C24.1265 24.74 24.1263 24.74 24.1261 24.74C24.1258 24.74 24.1256 24.74 24.1254 24.74C24.1252 24.74 24.125 24.74 24.1248 24.74C24.1246 24.74 24.1243 24.74 24.1241 24.74C24.1239 24.74 24.1237 24.74 24.1235 24.74C24.1233 24.74 24.123 24.74 24.1228 24.74C24.1226 24.74 24.1224 24.74 24.1222 24.74C24.122 24.74 24.1217 24.74 24.1215 24.74C24.1213 24.74 24.1211 24.74 24.1209 24.74C24.1207 24.74 24.1204 24.74 24.1202 24.74C24.12 24.74 24.1198 24.74 24.1196 24.74C24.1194 24.74 24.1191 24.74 24.1189 24.74C24.1187 24.74 24.1185 24.74 24.1183 24.74C24.1181 24.74 24.1178 24.74 24.1176 24.74C24.1174 24.74 24.1172 24.74 24.117 24.74C24.1168 24.74 24.1165 24.74 24.1163 24.74C24.1161 24.74 24.1159 24.74 24.1157 24.74C24.1154 24.74 24.1152 24.74 24.115 24.74C24.1148 24.74 24.1146 24.74 24.1144 24.74C24.1141 24.74 24.1139 24.74 24.1137 24.74C24.1135 24.74 24.1133 24.74 24.1131 24.74C24.1128 24.74 24.1126 24.74 24.1124 24.74C24.1122 24.74 24.112 24.74 24.1117 24.74C24.1115 24.74 24.1113 24.74 24.1111 24.74C24.1109 24.74 24.1107 24.74 24.1104 24.74C24.1102 24.74 24.11 24.74 24.1098 24.74C24.1096 24.74 24.1094 24.74 24.1091 24.74C24.1089 24.74 24.1087 24.74 24.1085 24.74C24.1083 24.74 24.108 24.74 24.1078 24.74C24.1076 24.74 24.1074 24.74 24.1072 24.74C24.107 24.74 24.1067 24.74 24.1065 24.74C24.1063 24.74 24.1061 24.74 24.1059 24.74C24.1056 24.74 24.1054 24.74 24.1052 24.74C24.105 24.74 24.1048 24.74 24.1045 24.74C24.1043 24.74 24.1041 24.74 24.1039 24.74C24.1037 24.74 24.1035 24.74 24.1032 24.74C24.103 24.74 24.1028 24.74 24.1026 24.74C24.1024 24.74 24.1021 24.74 24.1019 24.74C24.1017 24.74 24.1015 24.74 24.1013 24.74C24.101 24.74 24.1008 24.74 24.1006 24.74C24.1004 24.74 24.1002 24.74 24.1 24.74C24.0997 24.74 24.0995 24.74 24.0993 24.74C24.0991 24.74 24.0989 24.74 24.0986 24.74C24.0984 24.74 24.0982 24.74 24.098 24.74C24.0978 24.74 24.0975 24.74 24.0973 24.74C24.0971 24.74 24.0969 24.74 24.0967 24.74C24.0964 24.74 24.0962 24.74 24.096 24.74C24.0958 24.74 24.0956 24.74 24.0953 24.74C24.0951 24.74 24.0949 24.74 24.0947 24.74C24.0945 24.74 24.0942 24.74 24.094 24.74C24.0938 24.74 24.0936 24.74 24.0934 24.74C24.0931 24.74 24.0929 24.74 24.0927 24.74C24.0925 24.74 24.0923 24.74 24.092 24.74C24.0918 24.74 24.0916 24.74 24.0914 24.74C24.0912 24.74 24.0909 24.74 24.0907 24.74C24.0905 24.74 24.0903 24.74 24.0901 24.74C24.0898 24.74 24.0896 24.74 24.0894 24.74C24.0892 24.74 24.089 24.74 24.0887 24.74C24.0885 24.74 24.0883 24.74 24.0881 24.74C24.0879 24.74 24.0876 24.74 24.0874 24.74C24.0872 24.74 24.087 24.74 24.0868 24.74C24.0865 24.74 24.0863 24.74 24.0861 24.74C24.0859 24.74 24.0857 24.74 24.0854 24.74C24.0852 24.74 24.085 24.74 24.0848 24.74C24.0846 24.74 24.0843 24.74 24.0841 24.74C24.0839 24.74 24.0837 24.74 24.0834 24.74C24.0832 24.74 24.083 24.74 24.0828 24.74C24.0826 24.74 24.0823 24.74 24.0821 24.74C24.0819 24.74 24.0817 24.74 24.0815 24.74C24.0812 24.74 24.081 24.74 24.0808 24.74C24.0806 24.74 24.0804 24.74 24.0801 24.74C24.0799 24.74 24.0797 24.74 24.0795 24.74C24.0792 24.74 24.079 24.74 24.0788 24.74C24.0786 24.74 24.0784 24.74 24.0781 24.74C24.0779 24.74 24.0777 24.74 24.0775 24.74C24.0772 24.74 24.077 24.74 24.0768 24.74C24.0766 24.74 24.0764 24.74 24.0761 24.74C24.0759 24.74 24.0757 24.74 24.0755 24.74C24.0753 24.74 24.075 24.74 24.0748 24.74C24.0746 24.74 24.0744 24.74 24.0741 24.74C24.0739 24.74 24.0737 24.74 24.0735 24.74C24.0733 24.74 24.073 24.74 24.0728 24.74C24.0726 24.74 24.0724 24.74 24.0721 24.74C24.0719 24.74 24.0717 24.74 24.0715 24.74C24.0713 24.74 24.071 24.74 24.0708 24.74C24.0706 24.74 24.0704 24.74 24.0701 24.74C24.0699 24.74 24.0697 24.74 24.0695 24.74C24.0693 24.74 24.069 24.74 24.0688 24.74C24.0686 24.74 24.0684 24.74 24.0681 24.74C24.0679 24.74 24.0677 24.74 24.0675 24.74C24.0672 24.74 24.067 24.74 24.0668 24.74C24.0666 24.74 24.0664 24.74 24.0661 24.74C24.0659 24.74 24.0657 24.74 24.0655 24.74C24.0652 24.74 24.065 24.74 24.0648 24.74C24.0646 24.74 24.0643 24.74 24.0641 24.74C24.0639 24.74 24.0637 24.74 24.0635 24.74C24.0632 24.74 24.063 24.74 24.0628 24.74C24.0626 24.74 24.0623 24.74 24.0621 24.74C24.0619 24.74 24.0617 24.74 24.0614 24.74C24.0612 24.74 24.061 24.74 24.0608 24.74C24.0605 24.74 24.0603 24.74 24.0601 24.74C24.0599 24.74 24.0597 24.74 24.0594 24.74C24.0592 24.74 24.059 24.74 24.0588 24.74C24.0585 24.74 24.0583 24.74 24.0581 24.74C24.0579 24.74 24.0576 24.74 24.0574 24.74C24.0572 24.74 24.057 24.74 24.0567 24.74C24.0565 24.74 24.0563 24.74 24.0561 24.74C24.0558 24.74 24.0556 24.74 24.0554 24.74C24.0552 24.74 24.0549 24.74 24.0547 24.74C24.0545 24.74 24.0543 24.74 24.0541 24.74C24.0538 24.74 24.0536 24.74 24.0534 24.74C24.0532 24.74 24.0529 24.74 24.0527 24.74C24.0525 24.74 24.0523 24.74 24.052 24.74C24.0518 24.74 24.0516 24.74 24.0514 24.74C24.0511 24.74 24.0509 24.74 24.0507 24.74C24.0505 24.74 24.0502 24.74 24.05 24.74C24.0498 24.74 24.0496 24.74 24.0493 24.74C24.0491 24.74 24.0489 24.74 24.0487 24.74C24.0484 24.74 24.0482 24.74 24.048 24.74C24.0478 24.74 24.0475 24.74 24.0473 24.74C24.0471 24.74 24.0469 24.74 24.0466 24.74C24.0464 24.74 24.0462 24.74 24.046 24.74C24.0457 24.74 24.0455 24.74 24.0453 24.74C24.0451 24.74 24.0448 24.74 24.0446 24.74C24.0444 24.74 24.0442 24.74 24.0439 24.74C24.0437 24.74 24.0435 24.74 24.0433 24.74C24.043 24.74 24.0428 24.74 24.0426 24.74C24.0423 24.74 24.0421 24.74 24.0419 24.74C24.0417 24.74 24.0414 24.74 24.0412 24.74C24.041 24.74 24.0408 24.74 24.0405 24.74C24.0403 24.74 24.0401 24.74 24.0399 24.74C24.0396 24.74 24.0394 24.74 24.0392 24.74C24.039 24.74 24.0387 24.74 24.0385 24.74C24.0383 24.74 24.0381 24.74 24.0378 24.74C24.0376 24.74 24.0374 24.74 24.0372 24.74C24.0369 24.74 24.0367 24.74 24.0365 24.74C24.0362 24.74 24.036 24.74 24.0358 24.74C24.0356 24.74 24.0353 24.74 24.0351 24.74C24.0349 24.74 24.0347 24.74 24.0344 24.74C24.0342 24.74 24.034 24.74 24.0338 24.74C24.0335 24.74 24.0333 24.74 24.0331 24.74C24.0328 24.74 24.0326 24.74 24.0324 24.74C24.0322 24.74 24.0319 24.74 24.0317 24.74C24.0315 24.74 24.0313 24.74 24.031 24.74C24.0308 24.74 24.0306 24.74 24.0304 24.74C24.0301 24.74 24.0299 24.74 24.0297 24.74C24.0294 24.74 24.0292 24.74 24.029 24.74C24.0288 24.74 24.0285 24.74 24.0283 24.74C24.0281 24.74 24.0279 24.74 24.0276 24.74C24.0274 24.74 24.0272 24.74 24.0269 24.74C24.0267 24.74 24.0265 24.74 24.0263 24.74C24.026 24.74 24.0258 24.74 24.0256 24.74C24.0254 24.74 24.0251 24.74 24.0249 24.74C24.0247 24.74 24.0244 24.74 24.0242 24.74C24.024 24.74 24.0238 24.74 24.0235 24.74C24.0233 24.74 24.0231 24.74 24.0228 24.74C24.0226 24.74 24.0224 24.74 24.0222 24.74C24.0219 24.74 24.0217 24.74 24.0215 24.74C24.0212 24.74 24.021 24.74 24.0208 24.74C24.0206 24.74 24.0203 24.74 24.0201 24.74C24.0199 24.74 24.0197 24.74 24.0194 24.74C24.0192 24.74 24.019 24.74 24.0187 24.74C24.0185 24.74 24.0183 24.74 24.0181 24.74C24.0178 24.74 24.0176 24.74 24.0174 24.74C24.0171 24.74 24.0169 24.74 24.0167 24.74C24.0165 24.74 24.0162 24.74 24.016 24.74C24.0158 24.74 24.0155 24.74 24.0153 24.74C24.0151 24.74 24.0149 24.74 24.0146 24.74C24.0144 24.74 24.0142 24.74 24.0139 24.74C24.0137 24.74 24.0135 24.74 24.0133 24.74C24.013 24.74 24.0128 24.74 24.0126 24.74C24.0123 24.74 24.0121 24.74 24.0119 24.74C24.0116 24.74 24.0114 24.74 24.0112 24.74C24.011 24.74 24.0107 24.74 24.0105 24.74C24.0103 24.74 24.01 24.74 24.0098 24.74C24.0096 24.74 24.0094 24.74 24.0091 24.74C24.0089 24.74 24.0087 24.74 24.0084 24.74C24.0082 24.74 24.008 24.74 24.0077 24.74C24.0075 24.74 24.0073 24.74 24.0071 24.74C24.0068 24.74 24.0066 24.74 24.0064 24.74C24.0061 24.74 24.0059 24.74 24.0057 24.74C24.0055 24.74 24.0052 24.74 24.005 24.74C24.0048 24.74 24.0045 24.74 24.0043 24.74C24.0041 24.74 24.0038 24.74 24.0036 24.74C24.0034 24.74 24.0032 24.74 24.0029 24.74C24.0027 24.74 24.0025 24.74 24.0022 24.74C24.002 24.74 24.0018 24.74 24.0015 24.74C24.0013 24.74 24.0011 24.74 24.0009 24.74C24.0006 24.74 24.0004 24.74 24.0002 24.74C23.9999 24.74 23.9997 24.74 23.9995 24.74C23.9992 24.74 23.999 24.74 23.9988 24.74C23.9985 24.74 23.9983 24.74 23.9981 24.74C23.9979 24.74 23.9976 24.74 23.9974 24.74C23.9972 24.74 23.9969 24.74 23.9967 24.74C23.9965 24.74 23.9962 24.74 23.996 24.74C23.9958 24.74 23.9955 24.74 23.9953 24.74C23.9951 24.74 23.9949 24.74 23.9946 24.74C23.9944 24.74 23.9942 24.74 23.9939 24.74C23.9937 24.74 23.9935 24.74 23.9932 24.74C23.993 24.74 23.9928 24.74 23.9925 24.74C23.9923 24.74 23.9921 24.74 23.9918 24.74C23.9916 24.74 23.9914 24.74 23.9912 24.74C23.9909 24.74 23.9907 24.74 23.9905 24.74C23.9902 24.74 23.99 24.74 23.9898 24.74C23.9895 24.74 23.9893 24.74 23.9891 24.74C23.9888 24.74 23.9886 24.74 23.9884 24.74C23.9881 24.74 23.9879 24.74 23.9877 24.74C23.9874 24.74 23.9872 24.74 23.987 24.74C23.9868 24.74 23.9865 24.74 23.9863 24.74C23.9861 24.74 23.9858 24.74 23.9856 24.74C23.9854 24.74 23.9851 24.74 23.9849 24.74C23.9847 24.74 23.9844 24.74 23.9842 24.74C23.984 24.74 23.9837 24.74 23.9835 24.74C23.9833 24.74 23.983 24.74 23.9828 24.74C23.9826 24.74 23.9823 24.74 23.9821 24.74C23.9819 24.74 23.9816 24.74 23.9814 24.74C23.9812 24.74 23.9809 24.74 23.9807 24.74C23.9805 24.74 23.9803 24.74 23.98 24.74C23.9798 24.74 23.9796 24.74 23.9793 24.74C23.9791 24.74 23.9789 24.74 23.9786 24.74C23.9784 24.74 23.9782 24.74 23.9779 24.74C23.9777 24.74 23.9775 24.74 23.9772 24.74C23.977 24.74 23.9768 24.74 23.9765 24.74C23.9763 24.74 23.9761 24.74 23.9758 24.74C23.9756 24.74 23.9754 24.74 23.9751 24.74C23.9749 24.74 23.9747 24.74 23.9744 24.74C23.9742 24.74 23.974 24.74 23.9737 24.74C23.9735 24.74 23.9733 24.74 23.973 24.74C23.9728 24.74 23.9726 24.74 23.9723 24.74C23.9721 24.74 23.9719 24.74 23.9716 24.74C23.9714 24.74 23.9712 24.74 23.9709 24.74C23.9707 24.74 23.9705 24.74 23.9702 24.74C23.97 24.74 23.9698 24.74 23.9695 24.74C23.9693 24.74 23.9691 24.74 23.9688 24.74C23.9686 24.74 23.9684 24.74 23.9681 24.74C23.9679 24.74 23.9677 24.74 23.9674 24.74C23.9672 24.74 23.967 24.74 23.9667 24.74C23.9665 24.74 23.9662 24.74 23.966 24.74C23.9658 24.74 23.9655 24.74 23.9653 24.74C23.9651 24.74 23.9648 24.74 23.9646 24.74C23.9644 24.74 23.9641 24.74 23.9639 24.74V25.24ZM24.2939 25.24C26.1961 25.24 28.2403 24.7594 30.4237 23.8092L30.2241 23.3508C28.0875 24.2806 26.1117 24.74 24.2939 24.74V25.24ZM30.4254 23.8085C32.6245 22.8311 34.3908 21.4029 35.7181 19.5243L35.3097 19.2357C34.037 21.0371 32.3433 22.4089 30.2224 23.3515L30.4254 23.8085ZM35.7173 19.5253C35.7339 19.5022 35.7454 19.4907 35.7508 19.4861C35.756 19.4817 35.7512 19.4873 35.7357 19.492C35.7183 19.4972 35.6975 19.498 35.6783 19.4932C35.661 19.4888 35.6542 19.4824 35.6577 19.4852L35.9701 19.0948C35.8724 19.0167 35.739 18.969 35.5921 19.013C35.4643 19.0514 35.3735 19.1464 35.3105 19.2347L35.7173 19.5253ZM35.6752 19.498C35.6994 19.5142 35.7183 19.5282 35.7326 19.5402C35.7471 19.5523 35.7552 19.5607 35.7591 19.5652C35.7632 19.5699 35.7601 19.5676 35.7557 19.5579C35.7509 19.5476 35.7439 19.5275 35.7439 19.5H36.2439C36.2439 19.3855 36.1876 19.2968 36.1387 19.2398C36.0879 19.1805 36.0222 19.1284 35.9526 19.082L35.6752 19.498ZM35.7439 19.5C35.7439 19.5018 35.7437 19.4974 35.7468 19.4897C35.75 19.4816 35.7544 19.4759 35.7571 19.4732L36.1107 19.8268C36.2006 19.7368 36.2439 19.6218 36.2439 19.5H35.7439ZM35.7322 19.5022C34.2756 21.4903 32.4876 22.9826 30.3672 23.9839L30.5807 24.4361C32.7802 23.3974 34.6322 21.8497 36.1356 19.7978L35.7322 19.5022ZM30.3672 23.9839C28.2345 24.991 26.1809 25.49 24.2039 25.49V25.99C26.267 25.99 28.3933 25.469 30.5807 24.4361L30.3672 23.9839ZM24.2039 25.49C22.1313 25.49 20.6086 24.9049 19.5897 23.7728L19.2181 24.1072C20.3592 25.3751 22.0365 25.99 24.2039 25.99V25.49ZM19.59 23.773C18.9391 23.0478 18.6039 22.0915 18.6039 20.88H18.1039C18.1039 22.1885 18.4687 23.2722 19.2178 24.107L19.59 23.773ZM18.6039 20.88C18.6039 18.8238 19.38 16.5912 20.963 14.1771L20.5448 13.9029C18.9279 16.3688 18.1039 18.6962 18.1039 20.88H18.6039ZM20.9629 14.1772C23.1205 10.8913 25.7238 8.62859 28.7693 7.37108L28.5785 6.90892C25.424 8.21141 22.7473 10.5487 20.5449 13.9028L20.9629 14.1772ZM28.7668 7.37212C29.9423 6.9019 31.0608 6.67 32.1239 6.67V6.17C30.9871 6.17 29.8055 6.4181 28.5811 6.90788L28.7668 7.37212ZM32.1239 6.67C33.4532 6.67 34.3375 6.98381 34.8487 7.54788L35.2192 7.21212C34.5703 6.49619 33.5146 6.17 32.1239 6.17V6.67ZM34.8447 7.5434C35.1856 7.93812 35.3539 8.39016 35.3539 8.91H35.8539C35.8539 8.26984 35.6422 7.70188 35.2231 7.21659L34.8447 7.5434ZM35.3539 8.91C35.3539 9.91721 34.8231 10.9873 33.6871 12.1232L34.0407 12.4768C35.2248 11.2927 35.8539 10.1028 35.8539 8.91H35.3539ZM33.6871 12.1232C32.5458 13.2646 31.278 14.1783 29.8834 14.8658L30.1044 15.3142C31.5499 14.6017 32.8621 13.6554 34.0407 12.4768L33.6871 12.1232ZM29.8847 14.8651C28.4996 15.5379 27.3096 15.915 26.31 16.0111L26.3578 16.5089C27.4382 16.405 28.6882 16.0021 30.1031 15.3149L29.8847 14.8651ZM26.3102 16.0111C26.1137 16.0298 26.0216 16.0062 25.9894 15.9884C25.9795 15.983 25.9824 15.9822 25.985 15.9875C25.9864 15.9905 25.9807 15.9816 25.9832 15.9492L25.4846 15.9108C25.4771 16.0084 25.4889 16.1107 25.5353 16.2062C25.5829 16.304 25.6583 16.377 25.7484 16.4266C25.9162 16.5188 26.1341 16.5302 26.3576 16.5089L26.3102 16.0111ZM25.9835 15.9439C25.9901 15.8249 26.0304 15.7549 26.0926 15.7052C26.1638 15.6482 26.2907 15.597 26.5047 15.5791L26.4631 15.0809C26.1971 15.103 25.959 15.1718 25.7802 15.3148C25.5924 15.4651 25.4977 15.6751 25.4843 15.9161L25.9835 15.9439ZM26.5057 15.579C28.1433 15.4358 29.6507 14.9439 31.0244 14.1032L30.7634 13.6768C29.4571 14.4761 28.0245 14.9442 26.4621 15.081L26.5057 15.579ZM31.0267 14.1018C32.4037 13.2386 33.4647 12.0957 34.2056 10.6756L33.7623 10.4444C33.0632 11.7843 32.0641 12.8614 30.7611 13.6782L31.0267 14.1018ZM34.1955 10.6932C34.558 10.1175 34.7439 9.5118 34.7439 8.88H34.2439C34.2439 9.4082 34.0898 9.92255 33.7723 10.4268L34.1955 10.6932Z" fill="#4A1A76"/>
</g>
</svg>
