<svg width="1440" height="1184" viewBox="0 0 1440 1184" fill="none" xmlns="http://www.w3.org/2000/svg">
<g id="MEMPHIS">
<rect id="Rectangle 8" x="2.29404" y="2.29404" width="41.2945" height="41.2909" transform="translate(1340.2 807.922) scale(-1.00001 0.999989) rotate(15.0011)" stroke="#EB5757" stroke-width="4.58808"/>
<rect id="Rectangle 8_2" x="2.29404" y="2.29404" width="31.8457" height="31.8476" transform="translate(442.74 363.741) scale(-1.00003 0.999969) rotate(61.9519)" stroke="#FF9090" stroke-width="4.58808"/>
<rect id="Rectangle 8_3" x="2.29404" y="2.29404" width="29.1464" height="29.1491" transform="translate(548.11 123.193) scale(1.00001 -0.99999) rotate(-75.9424)" stroke="#56CCF2" stroke-width="4.58808"/>
<rect id="Rectangle 8_4" x="2.29404" y="2.29404" width="15.654" height="15.6528" transform="translate(1045.5 760.717) scale(-1.00003 0.999974) rotate(-25.0013)" stroke="#6FCF97" stroke-width="4.58808"/>
<path id="Ellipse" d="M11.8082 6.74687C11.8082 9.54133 9.54255 11.8069 6.74747 11.8069C3.95239 11.8069 1.68679 9.54133 1.68679 6.74687C1.68679 3.95241 3.95239 1.68679 6.74747 1.68679C9.54255 1.68679 11.8082 3.95241 11.8082 6.74687Z" transform="translate(1209.02 571.782) scale(-1 1)" stroke="#FF3B3B" stroke-width="3.37358"/>
<path id="Polygon" d="M5.9953 32.7223L22.9414 3.37337L39.8874 32.7223H5.9953Z" transform="translate(138.875 611.963) scale(-1 0.999997) rotate(-8.07883)" stroke="#2F80ED" stroke-width="3.37358"/>
<path id="Polygon_2" d="M5.18128 23.6161L16.8672 3.37379L28.5532 23.6161L5.18128 23.6161Z" transform="translate(403.13 671.615) scale(-1.00001 0.999991) rotate(-76.7152)" stroke="#9B51E0" stroke-width="3.37358"/>
<path id="Polygon_3" d="M4.72951 18.5547L13.4943 3.37358L22.2592 18.5547H4.72951Z" transform="translate(151.58 1035.06) scale(-1.00004 0.999955) rotate(-45)" stroke="#F2994A" stroke-width="3.37358"/>
<line id="Line 3" y1="-1.68679" x2="39.1327" y2="-1.68679" transform="translate(1354.43 388.345) scale(1.00003 -0.999966) rotate(59.9989)" stroke="#BB40B5" stroke-width="3.37358"/>
<line id="Line 3_2" y1="-1.68679" x2="53.9761" y2="-1.68679" transform="translate(1032.92 1082) scale(1.00003 -0.999966) rotate(59.9989)" stroke="#BB40B5" stroke-width="3.37358"/>
<line id="Line 3_3" y1="-1.68679" x2="39.1327" y2="-1.68679" transform="translate(572.545 968.235) rotate(59.9989)" stroke="#BB40B5" stroke-width="3.37358"/>
<line id="Line 3_4" y1="-1.68679" x2="53.9761" y2="-1.68679" transform="translate(206.687 310.004) rotate(59.9989)" stroke="#BB40B5" stroke-width="3.37358"/>
<rect id="Rectangle 6" width="1440" height="1184" fill="#F6F6F6" fill-opacity="0.6"/>
</g>
</svg>
